# xmcd
#
# Track frame offsets:
#	150
#	34191
#	66240
#	98403
#	135076
#	167194
#	207740
#	242359
#	276834
#	307390
#
# Disc length: 4587 seconds
#
# Revision: 1
# Processed by: cddbd v1.5.2PL0 Copyright (c) Steve Scherf et al.
# Submitted via: audiograbber 1.83.01
#
DISCID=8c11e90a
DTITLE=DJ Oliver - Ibiza Sessions Deluxe 4 - Cd2
DYEAR=2007
DGENRE=House
TTITLE0=Ralph Rosario - I want You (Caesars Scissors Edit)
TTITLE1=Milk and Sugar Pres. MS2 - Stay Around (For This)
TTITLE2=Eric Prydz and Steve Angello - Woz not Woz
TTITLE3=DJ Oliver - Change the World
TTITLE4=SIKK - My washing Machine (Original Mix)
TTITLE5=Java and Gabi Newman - No puedo Olvidarme (Main Mix)
TTITLE6=Cirez D. - Teaser (Original Mix)
TTITLE7=DJ Oliver - I wanna Feel
TTITLE8=Age of Love - The age of Love
TTITLE9=Ame - Rej (Original Mix)
EXTD=
EXTT0=
EXTT1=
EXTT2=
EXTT3=
EXTT4=
EXTT5=
EXTT6=
EXTT7=
EXTT8=
EXTT9=
PLAYORDER=
